# 3ds Max Wavefront OBJ Exporter v0.97b - (c)2007 guruware
# File Created: 08.03.2016 15:02:04

mtllib cubo2.mtl

#
# object Box001
#

v  -29.1927 0.0000 27.9908
v  -29.1927 0.0000 -22.0092
v  20.8073 0.0000 -22.0092
v  20.8073 0.0000 27.9908
v  -29.1927 50.0000 27.9908
v  20.8073 50.0000 27.9908
v  20.8073 50.0000 -22.0092
v  -29.1927 50.0000 -22.0092
# 8 vertices

vn 0.0000 -1.0000 -0.0000
vn 0.0000 1.0000 -0.0000
vn 0.0000 0.0000 1.0000
vn 1.0000 0.0000 -0.0000
vn 0.0000 0.0000 -1.0000
vn -1.0000 0.0000 -0.0000
# 6 vertex normals

vt 0.3333 0.6667 0.0000
vt 0.3333 0.3333 0.0000
vt 0.6667 0.3333 0.0000
vt 0.6667 0.6667 0.0000
vt 0.0000 0.6667 0.0000
vt 0.3333 1.0000 0.0000
vt 0.0000 1.0000 0.0000
vt 0.3333 0.0000 0.0000
vt 0.6667 0.0000 0.0000
vt 1.0000 0.0000 0.0000
vt 1.0000 0.3333 0.0000
vt 0.0000 0.3333 0.0000
vt 0.0000 0.0000 0.0000
# 13 texture coords

g Box001
usemtl 08___Default
s off
f 1/1/1 2/2/1 3/3/1 4/4/1 
f 5/5/2 6/1/2 7/6/2 8/7/2 
f 1/8/3 4/9/3 6/3/3 5/2/3 
f 4/9/4 3/10/4 7/11/4 6/3/4 
f 3/12/5 2/2/5 8/1/5 7/5/5 
f 2/13/6 1/8/6 5/2/6 8/12/6 
# 6 polygons

